<?xml version="1.0" standalone="no"?><!DOCTYPE svg PUBLIC "-//W3C//DTD SVG 1.1//EN" "http://www.w3.org/Graphics/SVG/1.1/DTD/svg11.dtd"><svg t="1574584511048" class="icon" viewBox="0 0 1024 1024" version="1.1" xmlns="http://www.w3.org/2000/svg" p-id="1665" width="28" height="28" xmlns:xlink="http://www.w3.org/1999/xlink"><defs><style type="text/css"></style></defs><path d="M708.266667 857.6H315.733333c-81.066667 0-145.066667-64-145.066666-145.066667V315.733333C170.666667 238.933333 234.666667 170.666667 315.733333 170.666667h200.533334c17.066667 0 29.866667 12.8 29.866666 29.866666s-12.8 29.866667-29.866666 29.866667H315.733333c-51.2 0-89.6 38.4-89.6 89.6v396.8c0 51.2 38.4 89.6 89.6 89.6h396.8c51.2 0 89.6-38.4 89.6-89.6v-187.733333c0-17.066667 12.8-29.866667 29.866667-29.866667 17.066667 0 29.866667 12.8 29.866667 29.866667v187.733333c-8.533333 76.8-72.533333 140.8-153.6 140.8zM819.2 230.4h-123.733333c-17.066667 0-29.866667-12.8-29.866667-29.866667 0-17.066667 12.8-29.866667 29.866667-29.866666h123.733333c17.066667 0 29.866667 12.8 29.866667 29.866666s-8.533333 29.866667-29.866667 29.866667z" fill="#A9A9A9" p-id="1666"></path><path d="M823.466667 358.4c-17.066667 0-29.866667-12.8-29.866667-29.866667V204.8c0-17.066667 12.8-29.866667 29.866667-29.866667 17.066667-4.266667 29.866667 8.533333 29.866666 29.866667v123.733333c0 17.066667-8.533333 29.866667-29.866666 29.866667z" fill="#A9A9A9" p-id="1667"></path><path d="M482.133333 576c-8.533333 0-17.066667-4.266667-17.066666-8.533333-12.8-12.8-12.8-29.866667 0-42.666667l324.266666-332.8c12.8-12.8 29.866667-12.8 42.666667 0 12.8 12.8 12.8 29.866667 0 42.666667l-324.266667 332.8c-12.8 8.533333-17.066667 8.533333-25.6 8.533333z" fill="#A9A9A9" p-id="1668"></path></svg>