<?xml version="1.0" standalone="no"?><!DOCTYPE svg PUBLIC "-//W3C//DTD SVG 1.1//EN" "http://www.w3.org/Graphics/SVG/1.1/DTD/svg11.dtd"><svg t="1574584221025" class="icon" viewBox="0 0 1024 1024" version="1.1" xmlns="http://www.w3.org/2000/svg" p-id="940" width="32" height="32" xmlns:xlink="http://www.w3.org/1999/xlink"><defs><style type="text/css"></style></defs><path d="M909.013333 371.2a80.64 80.64 0 0 0-62.293333-29.866667h-180.906667l14.506667-148.053333a132.693333 132.693333 0 0 0-32.213333-98.773333A101.76 101.76 0 0 0 572.373333 64a164.266667 164.266667 0 0 0-152.533333 117.12l-42.666667 161.28H175.786667A90.453333 90.453333 0 0 0 85.333333 431.786667v416.426666A90.453333 90.453333 0 0 0 175.786667 938.666667H341.333333a42.666667 42.666667 0 0 0 42.666667-42.666667V426.666667a85.333333 85.333333 0 0 0 75.093333-64l42.666667-161.493334A80.213333 80.213333 0 0 1 572.373333 149.333333a16.426667 16.426667 0 0 1 13.653334 4.906667 49.28 49.28 0 0 1 9.386666 33.706667l-19.2 192A42.666667 42.666667 0 0 0 618.666667 426.666667h225.066666l-82.56 426.666666H512a42.666667 42.666667 0 0 0 0 85.333334h284.373333a42.666667 42.666667 0 0 0 42.666667-34.56l89.173333-460.586667a87.253333 87.253333 0 0 0-19.2-72.32zM170.666667 848.213333V431.786667a5.12 5.12 0 0 1 5.12-5.12H298.666667v426.666666H175.786667a5.12 5.12 0 0 1-5.12-5.12z" fill="#ea6f5a" p-id="941"></path></svg>