<?xml version="1.0" standalone="no"?><!DOCTYPE svg PUBLIC "-//W3C//DTD SVG 1.1//EN" "http://www.w3.org/Graphics/SVG/1.1/DTD/svg11.dtd"><svg t="1574585379452" class="icon" viewBox="0 0 1024 1024" version="1.1" xmlns="http://www.w3.org/2000/svg" p-id="3402" width="35" height="35" xmlns:xlink="http://www.w3.org/1999/xlink"><defs><style type="text/css"></style></defs><path d="M733.866667 823.466667H290.133333c-34.133333 0-64-21.333333-72.533333-51.2L89.6 298.666667c-8.533333-25.6 0-55.466667 21.333333-72.533334 25.6-17.066667 59.733333-21.333333 89.6-4.266666l157.866667 98.133333 93.866667-93.866667c17.066667-17.066667 38.4-25.6 59.733333-25.6 21.333333 0 42.666667 8.533333 59.733333 21.333334l93.866667 93.866666 157.866667-98.133333c25.6-17.066667 64-12.8 89.6 4.266667 21.333333 17.066667 34.133333 42.666667 25.6 72.533333L810.666667 768c-12.8 34.133333-42.666667 55.466667-76.8 55.466667zM512 759.466667h221.866667c8.533333 0 12.8-4.266667 12.8-8.533334l128-473.6s0-4.266667-4.266667-4.266666c-4.266667-4.266667-12.8-4.266667-17.066667 0l-200.533333 123.733333-128-132.266667c-4.266667-4.266667-8.533333-4.266667-12.8-4.266666-4.266667 0-8.533333 0-12.8 4.266666l-128 132.266667L170.666667 273.066667c-8.533333-4.266667-17.066667 0-17.066667 0-8.533333 4.266667-8.533333 8.533333-4.266667 8.533333l128 473.6c0 4.266667 4.266667 8.533333 12.8 8.533333l221.866667-4.266666z" p-id="3403" fill="#515151"></path><path d="M631.466667 648.533333H392.533333c-17.066667 0-29.866667-12.8-29.866666-29.866666 0-17.066667 12.8-29.866667 29.866666-29.866667h234.666667c17.066667 0 29.866667 12.8 29.866667 29.866667 4.266667 17.066667-8.533333 29.866667-25.6 29.866666z" p-id="3404" fill="#515151"></path></svg>